<?xml version="1.0" standalone="no"?>
<!DOCTYPE svg PUBLIC "-//W3C//DTD SVG 20010904//EN"
 "http://www.w3.org/TR/2001/REC-SVG-20010904/DTD/svg10.dtd">
<svg version="1.0" xmlns="http://www.w3.org/2000/svg"
 width="694.000000pt" height="694.000000pt" viewBox="0 0 694.000000 694.000000"
 preserveAspectRatio="xMidYMid meet">
<metadata>
Created by potrace 1.11, written by Peter Selinger 2001-2013
</metadata>
<g transform="translate(0.000000,694.000000) scale(0.100000,-0.100000)"
fill="#000000" stroke="none">
<path d="M3732 5600 c-89 -41 -129 -148 -87 -231 9 -16 13 -35 9 -41 -4 -6 -3
-8 4 -4 6 3 17 0 24 -7 8 -8 27 -21 42 -29 l29 -15 -49 0 c-27 0 -55 4 -62 10
-10 8 -11 5 -3 -17 8 -19 7 -26 -2 -26 -8 0 -9 -2 -1 -8 12 -8 12 -81 0 -100
-4 -7 -3 -12 2 -12 13 0 10 -33 -3 -42 -6 -5 -5 -8 3 -8 12 0 9 -50 -4 -72 -3
-4 1 -8 8 -8 9 0 9 -3 -2 -10 -8 -5 -10 -10 -4 -10 13 0 13 -62 -1 -72 -6 -5
-6 -8 2 -8 12 0 12 -18 -1 -39 -5 -7 -5 -16 1 -20 12 -8 11 -144 -2 -153 -6
-5 -6 -8 2 -8 17 0 8 -78 -12 -100 -10 -11 -22 -17 -28 -13 -6 3 -7 1 -3 -5 4
-7 2 -12 -4 -12 -6 0 -9 -4 -6 -9 4 -5 3 -11 -1 -13 -5 -1 -26 -25 -48 -53
-22 -27 -43 -51 -47 -53 -5 -2 -8 -10 -8 -18 0 -8 -4 -14 -9 -14 -5 0 -13 -9
-16 -21 -5 -14 -12 -18 -23 -14 -13 5 -14 3 -5 -5 8 -9 5 -24 -13 -60 -13 -27
-27 -62 -30 -79 -4 -17 -9 -31 -13 -31 -18 0 -22 -225 -5 -295 8 -33 17 -69
19 -80 3 -10 12 -34 20 -52 9 -18 13 -38 10 -43 -3 -6 -2 -10 2 -10 5 0 22
-26 38 -57 15 -32 44 -83 63 -113 19 -30 35 -60 35 -67 0 -7 4 -10 8 -7 4 2
10 -5 14 -16 3 -11 11 -20 17 -20 6 0 9 -3 6 -6 -3 -3 4 -15 16 -28 11 -12 35
-40 53 -62 37 -45 60 -72 146 -168 34 -38 61 -74 59 -79 -1 -4 2 -6 8 -2 5 3
10 3 10 -2 0 -7 24 -36 101 -120 16 -17 29 -36 29 -41 0 -6 4 -12 10 -14 11
-4 120 -139 120 -150 0 -4 10 -18 23 -31 29 -32 120 -186 120 -204 0 -7 3 -13
7 -13 4 0 17 -24 30 -52 61 -141 91 -228 93 -274 1 -23 5 -40 8 -38 9 5 19
-47 25 -131 3 -38 7 -75 9 -82 2 -7 0 -15 -5 -18 -7 -4 -7 -13 0 -24 5 -10 8
-20 6 -22 -2 -2 -7 -40 -10 -84 -4 -44 -13 -109 -21 -145 -8 -36 -17 -76 -20
-90 -3 -14 -8 -33 -11 -42 -4 -14 1 -18 20 -18 14 0 26 2 26 4 0 3 7 36 15 75
27 130 37 217 37 331 0 74 -9 193 -17 230 -3 14 -10 48 -15 75 -5 28 -22 97
-39 154 -17 57 -27 109 -24 114 3 6 1 7 -4 4 -6 -4 -14 4 -17 18 -4 14 -20 55
-36 91 -17 36 -27 70 -24 76 4 7 2 8 -4 4 -10 -6 -17 7 -9 17 1 2 -6 11 -16
21 -9 10 -15 21 -12 26 3 5 1 10 -3 12 -11 4 -82 123 -82 137 0 6 -4 11 -9 11
-5 0 -13 9 -16 20 -3 11 -12 26 -18 33 -32 34 -57 79 -51 89 4 6 3 8 -3 5 -5
-3 -20 12 -34 34 -13 22 -36 54 -51 72 -15 18 -30 40 -34 50 -3 9 -10 17 -16
17 -5 0 -7 7 -4 16 3 8 2 12 -3 9 -9 -5 -27 32 -23 48 1 5 -2 6 -7 3 -16 -10
-136 198 -125 216 4 7 3 8 -4 4 -11 -6 -14 0 -11 20 0 4 -5 11 -13 15 -11 7
-11 12 1 31 13 21 13 22 -2 10 -13 -11 -17 -10 -23 10 -5 13 -9 28 -9 33 -1 6
-9 25 -18 42 -10 18 -17 34 -16 35 1 2 -4 21 -9 43 -19 72 -25 99 -26 132 -1
17 -5 29 -9 26 -5 -3 -8 21 -7 53 0 33 0 66 -1 74 -3 30 13 115 25 129 9 12 8
13 -2 7 -11 -7 -12 -4 -3 12 6 11 11 27 11 36 0 8 5 27 12 43 6 15 11 31 10
36 -1 4 3 7 8 7 5 0 9 3 8 8 -3 16 15 62 25 62 6 0 8 3 4 6 -3 3 8 29 25 57
17 29 36 61 42 72 33 59 62 93 78 92 10 -1 18 -4 18 -8 0 -12 -27 -29 -35 -21
-5 4 -5 1 -1 -5 6 -11 -31 -73 -55 -93 -3 -3 -19 -27 -34 -55 -16 -27 -33 -52
-37 -53 -5 -2 -6 -8 -3 -13 3 -4 -1 -21 -8 -36 -13 -26 -31 -93 -41 -155 -3
-15 -7 -32 -11 -38 -3 -5 -1 -10 6 -10 8 0 8 -4 -1 -15 -7 -8 -9 -15 -4 -15 5
0 10 -25 11 -54 1 -30 5 -67 9 -83 3 -15 7 -35 8 -43 1 -8 8 -25 14 -37 7 -13
9 -23 5 -23 -4 0 -2 -5 4 -11 6 -6 9 -18 6 -25 -3 -8 0 -14 6 -14 6 0 11 -5
11 -10 0 -6 9 -29 20 -52 11 -22 17 -44 15 -49 -3 -4 -2 -9 3 -11 10 -4 74
-118 67 -118 -3 0 3 -10 15 -22 11 -12 20 -26 20 -30 0 -5 11 -25 25 -45 13
-20 21 -41 18 -47 -3 -6 -3 -8 2 -4 10 10 97 -121 89 -134 -4 -6 -2 -8 3 -5 9
6 77 -82 118 -151 6 -9 13 -19 16 -22 4 -3 15 -19 25 -37 11 -17 47 -77 82
-132 55 -89 105 -185 155 -301 42 -99 93 -289 112 -420 4 -24 9 -48 11 -52 3
-5 -1 -8 -8 -8 -9 0 -9 -3 2 -10 13 -8 15 -47 15 -247 0 -131 -4 -273 -8 -315
-8 -74 -8 -78 11 -78 11 0 23 -6 25 -12 5 -11 9 50 10 129 0 13 4 23 9 23 5 0
6 5 2 11 -4 7 -6 39 -4 73 4 103 1 308 -5 376 -4 36 -7 77 -9 92 -1 16 2 24 8
20 7 -3 7 0 0 9 -6 8 -12 21 -12 29 0 8 -7 54 -14 102 -8 48 -10 84 -5 81 5
-3 4 3 -1 13 -6 11 -20 64 -32 119 -12 55 -26 112 -31 126 -6 14 -11 35 -12
47 -1 12 -5 22 -10 22 -5 0 -7 9 -4 20 3 11 1 20 -3 20 -11 0 -31 60 -24 71 3
5 0 9 -6 9 -6 0 -8 5 -5 10 3 6 2 10 -4 10 -6 0 -14 12 -17 26 -4 14 -18 48
-31 76 -13 28 -22 57 -19 64 3 8 1 13 -3 11 -5 -1 -9 2 -9 7 0 5 -4 12 -9 15
-14 11 -44 82 -37 92 3 5 1 8 -4 7 -6 -2 -10 1 -10 6 0 5 -4 12 -9 15 -16 11
-44 81 -37 93 4 7 3 8 -4 4 -11 -6 -16 6 -13 27 0 4 -3 7 -9 7 -5 0 -14 10
-21 21 -9 17 -8 20 3 13 7 -4 5 2 -5 14 -11 12 -16 26 -11 33 4 7 3 10 -3 6
-8 -5 -36 47 -36 70 0 4 -7 14 -14 22 -8 8 -11 22 -7 35 4 11 3 17 -2 13 -16
-15 -112 271 -99 293 3 5 1 10 -4 12 -20 7 -34 195 -17 217 8 12 8 13 -2 7
-16 -10 -13 24 3 37 6 6 6 10 -3 14 -6 2 -9 9 -6 15 4 6 8 31 11 56 2 26 11
51 21 59 9 8 11 12 5 8 -19 -9 -15 16 5 32 9 8 11 12 5 8 -15 -7 -16 -1 -4 23
14 25 24 56 23 65 -1 4 2 7 6 7 5 0 9 6 9 14 0 22 33 86 44 86 6 0 8 4 4 9 -3
5 1 15 8 23 14 13 17 21 17 38 0 11 69 8 89 -4 10 -6 12 -5 7 2 -5 8 1 12 14
12 14 0 19 -4 14 -12 -6 -10 -4 -10 7 0 7 6 24 12 37 12 16 0 21 -4 16 -12 -6
-10 -4 -10 7 -2 8 5 29 11 48 13 26 2 31 0 25 -11 -6 -10 -5 -11 7 -2 17 13
78 13 98 0 10 -6 12 -6 7 3 -6 9 10 11 66 9 40 -2 79 -8 87 -12 10 -6 12 -5 7
2 -5 8 8 11 43 9 28 -2 48 0 45 5 -3 4 -6 71 -7 147 0 118 -3 140 -16 143 -9
2 -55 4 -103 3 -80 0 -86 1 -75 17 7 9 41 59 77 112 35 52 69 92 74 89 5 -4 6
-1 1 7 -4 7 -4 15 1 19 5 3 17 20 26 36 10 17 21 29 25 28 5 -1 6 19 4 43 l-3
44 -212 0 c-116 1 -279 2 -363 3 -100 1 -149 -1 -143 -8 13 -16 7 -180 -7
-180 -6 0 -15 -3 -19 -7 -3 -4 3 -6 14 -3 18 3 20 -1 19 -39 0 -23 2 -46 5
-52 4 -5 34 -9 68 -7 35 1 58 -1 55 -7 -3 -5 -1 -12 5 -15 6 -4 9 -1 8 6 -2 7
7 14 19 15 20 1 21 0 6 -22 -8 -13 -19 -21 -24 -18 -5 3 -6 -1 -3 -9 3 -8 -2
-20 -11 -27 -8 -7 -15 -16 -15 -20 0 -4 -33 -57 -73 -116 -48 -72 -72 -118
-72 -136 1 -19 -5 -28 -19 -32 -27 -7 -32 0 -15 21 9 11 10 14 2 9 -10 -6 -13
46 -13 244 0 198 3 250 13 244 9 -6 9 -5 -1 8 -7 9 -12 40 -11 78 2 72 -4 79
-69 74 -30 -2 -41 0 -32 6 8 5 18 6 22 4 4 -3 8 -1 8 5 0 5 8 12 18 15 31 10
65 83 66 140 1 71 -29 117 -98 151 -62 30 -134 32 -194 5z"/>
<path d="M3192 5420 c1 -105 1 -189 -2 -187 -3 2 -27 13 -54 26 -252 119 -479
-181 -372 -490 25 -71 81 -143 134 -170 15 -8 29 -17 32 -21 3 -4 27 -9 53
-10 26 -2 47 -7 47 -12 0 -5 8 -2 17 5 15 12 16 12 8 -1 -8 -13 -6 -13 8 -2 9
8 21 11 27 7 5 -3 10 -1 10 4 0 6 3 10 8 9 10 -2 52 18 80 38 21 16 22 16 22
-10 0 -27 5 -29 63 -28 l29 1 -23 -19 c-12 -11 -26 -17 -32 -13 -5 3 -7 1 -4
-4 7 -12 -66 -95 -77 -88 -3 3 -4 2 -2 -1 3 -3 -18 -34 -45 -67 -212 -262
-219 -539 -23 -847 59 -94 124 -171 239 -284 55 -54 99 -102 97 -107 -1 -5 1
-8 5 -7 13 4 53 -26 53 -39 0 -7 6 -12 13 -11 6 2 11 -3 9 -10 -1 -8 2 -11 7
-8 5 3 28 -16 52 -42 24 -26 46 -47 49 -47 3 0 4 -4 2 -8 -1 -5 1 -6 6 -3 12
7 84 -68 75 -79 -5 -4 -3 -5 4 -1 13 7 175 -148 165 -158 -3 -4 1 -6 9 -7 19
-1 115 -114 111 -131 -2 -7 -1 -10 3 -6 28 28 235 -332 278 -482 56 -196 37
-373 -68 -623 -6 -14 -2 -17 19 -17 14 0 26 1 26 3 0 1 11 32 24 69 48 132 67
247 62 386 -3 119 -7 142 -50 287 -2 6 -9 26 -17 45 -7 19 -12 38 -11 43 1 4
-3 7 -9 7 -6 0 -9 6 -6 14 3 8 3 16 -1 18 -13 6 -42 79 -36 90 4 6 3 8 -3 5
-6 -4 -21 15 -34 41 -13 26 -26 49 -29 52 -3 3 -21 30 -40 60 -19 30 -37 57
-40 60 -3 3 -22 27 -41 54 -18 28 -41 57 -49 66 -8 9 -26 30 -39 46 -53 63
-127 149 -153 177 -23 25 -26 33 -15 46 10 14 10 14 -4 3 -14 -11 -23 -5 -62
39 -26 29 -43 57 -40 62 3 6 2 7 -4 4 -11 -7 -70 61 -65 76 1 5 -2 6 -7 3 -12
-8 -34 21 -26 34 4 6 2 9 -3 8 -6 -2 -21 10 -35 27 -21 24 -24 32 -14 45 10
13 10 13 -4 2 -14 -10 -19 -8 -33 12 -9 14 -16 30 -16 36 0 5 -5 10 -11 10 -6
0 -8 7 -5 16 3 8 2 12 -4 9 -12 -7 -33 32 -24 47 4 6 3 8 -3 5 -5 -3 -17 7
-27 24 -9 16 -14 29 -9 29 4 0 3 4 -2 8 -12 8 -63 118 -68 148 -2 10 -7 26
-11 34 -25 57 -37 232 -22 305 4 17 8 39 10 50 11 64 19 95 27 95 5 0 8 3 8 8
-5 29 2 44 19 37 13 -5 14 -3 5 6 -14 14 4 72 20 62 6 -3 7 -1 3 5 -12 20 54
133 118 205 9 9 14 17 10 17 -3 0 7 16 22 35 14 19 35 35 46 35 13 0 17 4 11
13 -10 16 -10 36 -1 63 3 12 2 26 -5 33 -8 8 -8 11 2 11 7 0 9 5 5 12 -10 16
-13 48 -4 48 3 0 6 9 6 20 0 11 -4 20 -9 20 -5 0 -4 6 2 14 7 8 8 17 3 20 -5
3 -8 15 -6 28 1 13 3 27 3 31 1 5 7 5 14 2 6 -4 4 0 -5 8 -12 10 -14 17 -7 24
7 7 8 17 3 24 -11 18 -13 49 -3 49 5 0 6 6 3 13 -8 23 -11 86 -3 99 4 7 5 16
2 21 -8 14 -8 132 1 145 3 6 2 13 -3 17 -7 4 -7 15 -1 30 7 18 6 25 -2 25 -6
0 -3 10 8 22 10 12 13 18 7 14 -7 -4 -13 -2 -13 3 0 19 5 26 15 23 6 -1 3 4
-7 11 -11 9 -13 18 -7 29 5 9 6 19 2 21 -5 3 -8 35 -7 71 l1 66 -184 0 -185 0
4 -190z m-7 -453 c26 -40 0 -107 -42 -107 -7 0 -13 5 -13 11 0 5 -4 8 -9 5
-12 -8 -22 20 -15 39 4 8 1 15 -5 15 -7 0 -7 8 1 25 7 15 17 24 25 21 8 -3 11
-1 8 4 -13 21 35 9 50 -13z"/>
<path d="M3593 5415 c0 -8 4 -12 9 -9 5 3 6 10 3 15 -9 13 -12 11 -12 -6z"/>
<path d="M3600 5380 c-9 -6 -10 -10 -3 -10 6 0 15 5 18 10 8 12 4 12 -15 0z"/>
<path d="M4013 5335 c0 -8 4 -12 9 -9 5 3 6 10 3 15 -9 13 -12 11 -12 -6z"/>
<path d="M3596 5253 c-6 -14 -5 -15 5 -6 7 7 10 15 7 18 -3 3 -9 -2 -12 -12z"/>
<path d="M2021 5252 c-7 -2 -11 -36 -11 -81 l0 -78 45 2 c50 1 54 -4 26 -29
-24 -22 -69 -122 -79 -178 -27 -143 21 -320 110 -405 58 -55 106 -76 173 -74
87 2 105 4 105 13 0 4 5 8 11 8 20 0 89 61 119 104 37 54 67 145 72 217 3 30
8 61 12 67 4 7 3 12 -2 12 -6 0 -12 18 -14 39 -2 22 1 37 5 34 5 -3 1 6 -8 20
-9 15 -14 31 -10 37 3 5 1 10 -5 10 -7 0 -10 7 -6 15 3 8 1 15 -4 15 -6 0 -18
16 -27 35 -9 19 -20 35 -24 35 -4 0 -9 6 -12 13 -3 9 9 12 44 10 45 -1 47 0
40 20 -5 12 -7 45 -6 73 1 29 0 56 -4 61 -6 8 -527 13 -550 5z m323 -159 c6
-4 17 -8 24 -9 7 -1 20 -8 28 -15 12 -9 12 -15 2 -28 -12 -14 -11 -14 4 -3 19
15 38 8 38 -14 0 -8 4 -14 10 -14 5 0 18 -28 29 -62 47 -154 -5 -317 -116
-364 -38 -17 -113 -19 -113 -3 0 5 -5 7 -10 4 -14 -9 -82 43 -74 56 3 5 0 8
-7 7 -23 -5 -61 92 -64 164 -7 131 43 236 128 273 33 14 104 18 121 8z"/>
<path d="M2356 5013 c-6 -14 -5 -15 5 -6 7 7 10 15 7 18 -3 3 -9 -2 -12 -12z"/>
<path d="M2170 4999 c0 -5 5 -7 10 -4 6 3 10 8 10 11 0 2 -4 4 -10 4 -5 0 -10
-5 -10 -11z"/>
<path d="M2255 5000 c3 -5 8 -10 11 -10 2 0 4 5 4 10 0 6 -5 10 -11 10 -5 0
-7 -4 -4 -10z"/>
<path d="M2427 4979 c7 -7 15 -10 18 -7 3 3 -2 9 -12 12 -14 6 -15 5 -6 -5z"/>
<path d="M2210 4959 c0 -5 5 -7 10 -4 6 3 10 8 10 11 0 2 -4 4 -10 4 -5 0 -10
-5 -10 -11z"/>
<path d="M2195 4920 c-3 -5 -1 -10 4 -10 6 0 11 5 11 10 0 6 -2 10 -4 10 -3 0
-8 -4 -11 -10z"/>
<path d="M2135 4760 c-3 -5 -1 -10 4 -10 6 0 11 5 11 10 0 6 -2 10 -4 10 -3 0
-8 -4 -11 -10z"/>
<path d="M4036 5213 c-6 -14 -5 -15 5 -6 7 7 10 15 7 18 -3 3 -9 -2 -12 -12z"/>
<path d="M3595 5211 c-3 -5 -2 -12 3 -15 5 -3 9 1 9 9 0 17 -3 19 -12 6z"/>
<path d="M4835 5111 c-3 -5 -2 -12 3 -15 5 -3 9 1 9 9 0 17 -3 19 -12 6z"/>
<path d="M3596 5093 c-6 -14 -5 -15 5 -6 7 7 10 15 7 18 -3 3 -9 -2 -12 -12z"/>
<path d="M2546 5062 c-3 -5 1 -9 9 -9 8 0 15 4 15 9 0 4 -4 8 -9 8 -6 0 -12
-4 -15 -8z"/>
<path d="M3595 5051 c-3 -5 -2 -12 3 -15 5 -3 9 1 9 9 0 17 -3 19 -12 6z"/>
<path d="M4020 4986 c0 -2 8 -10 18 -17 15 -13 16 -12 3 4 -13 16 -21 21 -21
13z"/>
<path d="M4710 4979 c0 -5 5 -7 10 -4 6 3 10 8 10 11 0 2 -4 4 -10 4 -5 0 -10
-5 -10 -11z"/>
<path d="M2595 4940 c3 -5 8 -10 11 -10 2 0 4 5 4 10 0 6 -5 10 -11 10 -5 0
-7 -4 -4 -10z"/>
<path d="M4155 4911 c-3 -5 -2 -12 3 -15 5 -3 9 1 9 9 0 17 -3 19 -12 6z"/>
<path d="M4676 4907 c3 -10 9 -15 12 -12 3 3 0 11 -7 18 -10 9 -11 8 -5 -6z"/>
<path d="M2670 4900 c0 -5 5 -10 11 -10 5 0 7 5 4 10 -3 6 -8 10 -11 10 -2 0
-4 -4 -4 -10z"/>
<path d="M4730 4906 c0 -2 7 -7 16 -10 8 -3 12 -2 9 4 -6 10 -25 14 -25 6z"/>
<path d="M4025 4840 c-3 -6 1 -7 9 -4 18 7 21 14 7 14 -6 0 -13 -4 -16 -10z"/>
<path d="M4025 4760 c-3 -6 1 -7 9 -4 18 7 21 14 7 14 -6 0 -13 -4 -16 -10z"/>
<path d="M4066 4738 c3 -5 10 -6 15 -3 13 9 11 12 -6 12 -8 0 -12 -4 -9 -9z"/>
<path d="M4026 4718 c3 -5 10 -6 15 -3 13 9 11 12 -6 12 -8 0 -12 -4 -9 -9z"/>
<path d="M4815 4711 c-3 -5 -2 -12 3 -15 5 -3 9 1 9 9 0 17 -3 19 -12 6z"/>
<path d="M2616 4642 c-3 -5 1 -9 9 -9 8 0 12 4 9 9 -3 4 -7 8 -9 8 -2 0 -6 -4
-9 -8z"/>
<path d="M4810 4600 c0 -5 5 -10 11 -10 5 0 7 5 4 10 -3 6 -8 10 -11 10 -2 0
-4 -4 -4 -10z"/>
<path d="M3589 4583 c-13 -16 -12 -17 4 -4 9 7 17 15 17 17 0 8 -8 3 -21 -13z"/>
<path d="M3536 4562 c-3 -4 4 -9 15 -9 23 -2 25 3 4 10 -8 4 -16 3 -19 -1z"/>
<path d="M4810 4559 c0 -5 5 -7 10 -4 6 3 10 8 10 11 0 2 -4 4 -10 4 -5 0 -10
-5 -10 -11z"/>
<path d="M4733 4545 c0 -8 4 -12 9 -9 5 3 6 10 3 15 -9 13 -12 11 -12 -6z"/>
<path d="M4366 4538 c3 -5 10 -6 15 -3 13 9 11 12 -6 12 -8 0 -12 -4 -9 -9z"/>
<path d="M4546 4538 c3 -5 10 -6 15 -3 13 9 11 12 -6 12 -8 0 -12 -4 -9 -9z"/>
<path d="M2616 4522 c-3 -4 4 -9 15 -9 23 -2 25 3 4 10 -8 4 -16 3 -19 -1z"/>
<path d="M3014 4516 c1 -8 5 -18 8 -22 4 -3 5 1 4 10 -1 8 -5 18 -8 22 -4 3
-5 -1 -4 -10z"/>
<path d="M3050 4519 c0 -5 5 -7 10 -4 6 3 10 8 10 11 0 2 -4 4 -10 4 -5 0 -10
-5 -10 -11z"/>
<path d="M4490 4519 c0 -5 5 -7 10 -4 6 3 10 8 10 11 0 2 -4 4 -10 4 -5 0 -10
-5 -10 -11z"/>
<path d="M4555 4511 c-3 -5 -2 -12 3 -15 5 -3 9 1 9 9 0 17 -3 19 -12 6z"/>
<path d="M4675 4511 c-3 -5 -2 -12 3 -15 5 -3 9 1 9 9 0 17 -3 19 -12 6z"/>
<path d="M4270 4506 c0 -2 7 -7 16 -10 8 -3 12 -2 9 4 -6 10 -25 14 -25 6z"/>
<path d="M2455 4440 c-3 -5 -1 -10 4 -10 6 0 11 5 11 10 0 6 -2 10 -4 10 -3 0
-8 -4 -11 -10z"/>
<path d="M2490 4440 c0 -5 5 -10 11 -10 5 0 7 5 4 10 -3 6 -8 10 -11 10 -2 0
-4 -4 -4 -10z"/>
<path d="M4140 4426 c0 -2 8 -10 18 -17 15 -13 16 -12 3 4 -13 16 -21 21 -21
13z"/>
<path d="M4110 4396 c0 -2 8 -10 18 -17 15 -13 16 -12 3 4 -13 16 -21 21 -21
13z"/>
<path d="M2496 4361 c-3 -5 2 -15 12 -22 15 -12 16 -12 5 2 -7 9 -10 19 -6 22
3 4 4 7 0 7 -3 0 -8 -4 -11 -9z"/>
<path d="M4130 4320 c0 -5 5 -10 11 -10 5 0 7 5 4 10 -3 6 -8 10 -11 10 -2 0
-4 -4 -4 -10z"/>
<path d="M2426 4302 c-2 -2 9 -29 25 -60 32 -63 39 -93 40 -167 2 -214 -128
-344 -269 -271 -32 16 -82 74 -82 93 0 7 -5 13 -12 13 -6 0 -8 3 -5 7 4 3 2
12 -4 19 -6 7 -11 35 -12 63 -1 28 -6 51 -12 51 -5 0 -3 5 5 10 8 5 10 10 4
10 -18 0 3 109 34 173 l29 57 -68 0 c-67 0 -67 0 -78 -32 -31 -96 -33 -253 -6
-359 42 -162 145 -278 258 -288 5 -1 5 -7 1 -13 -6 -9 -3 -9 9 0 9 8 21 11 27
7 6 -4 16 -2 23 3 7 5 25 12 41 16 15 4 35 14 43 22 8 8 19 12 24 8 5 -3 8 -2
7 3 -2 4 12 23 29 42 37 38 80 120 94 178 6 21 12 45 14 53 2 8 4 26 5 40 1
16 4 19 7 10 3 -8 40 -47 82 -87 81 -77 94 -79 105 -18 4 18 12 36 19 38 9 4
8 6 -2 6 -15 1 -57 51 -53 64 1 5 -2 6 -7 2 -6 -3 -18 6 -27 20 -9 14 -30 40
-48 59 -34 38 -49 33 -53 -18 -4 -48 -18 -49 -18 -1 0 24 4 47 7 51 4 3 3 14
-2 23 -4 9 -14 49 -21 90 -7 40 -17 75 -23 77 -16 5 -126 11 -130 6z"/>
<path d="M4070 4196 c0 -2 8 -10 18 -17 15 -13 16 -12 3 4 -13 16 -21 21 -21
13z"/>
<path d="M2127 4139 c7 -7 15 -10 18 -7 3 3 -2 9 -12 12 -14 6 -15 5 -6 -5z"/>
<path d="M2236 4138 c3 -5 10 -6 15 -3 13 9 11 12 -6 12 -8 0 -12 -4 -9 -9z"/>
<path d="M4120 4120 c-9 -6 -10 -10 -3 -10 6 0 15 5 18 10 8 12 4 12 -15 0z"/>
<path d="M3670 4016 c0 -2 8 -10 18 -17 15 -13 16 -12 3 4 -13 16 -21 21 -21
13z"/>
<path d="M4030 4000 c0 -5 5 -10 11 -10 5 0 7 5 4 10 -3 6 -8 10 -11 10 -2 0
-4 -4 -4 -10z"/>
<path d="M3270 3940 c0 -5 5 -10 11 -10 5 0 7 5 4 10 -3 6 -8 10 -11 10 -2 0
-4 -4 -4 -10z"/>
<path d="M2606 3922 c-3 -5 1 -9 9 -9 8 0 12 4 9 9 -3 4 -7 8 -9 8 -2 0 -6 -4
-9 -8z"/>
<path d="M3675 3921 c-3 -5 -2 -12 3 -15 5 -3 9 1 9 9 0 17 -3 19 -12 6z"/>
<path d="M4115 3909 c-4 -6 -5 -12 -2 -15 2 -3 7 2 10 11 7 17 1 20 -8 4z"/>
<path d="M3290 3880 c0 -5 5 -10 11 -10 5 0 7 5 4 10 -3 6 -8 10 -11 10 -2 0
-4 -4 -4 -10z"/>
<path d="M2815 3860 c-3 -5 -1 -10 4 -10 6 0 11 5 11 10 0 6 -2 10 -4 10 -3 0
-8 -4 -11 -10z"/>
<path d="M3295 3849 c-4 -6 -5 -12 -2 -15 2 -3 7 2 10 11 7 17 1 20 -8 4z"/>
<path d="M2655 3841 c-3 -5 -2 -12 3 -15 5 -3 9 1 9 9 0 17 -3 19 -12 6z"/>
<path d="M3710 3800 c0 -5 5 -10 11 -10 5 0 7 5 4 10 -3 6 -8 10 -11 10 -2 0
-4 -4 -4 -10z"/>
<path d="M4076 3793 c-6 -14 -5 -15 5 -6 7 7 10 15 7 18 -3 3 -9 -2 -12 -12z"/>
<path d="M2570 3759 c0 -5 5 -7 10 -4 6 3 10 8 10 11 0 2 -4 4 -10 4 -5 0 -10
-5 -10 -11z"/>
<path d="M2616 3758 c3 -5 10 -6 15 -3 13 9 11 12 -6 12 -8 0 -12 -4 -9 -9z"/>
<path d="M3286 3758 c3 -5 10 -6 15 -3 13 9 11 12 -6 12 -8 0 -12 -4 -9 -9z"/>
<path d="M4090 3720 c0 -5 5 -10 11 -10 5 0 7 5 4 10 -3 6 -8 10 -11 10 -2 0
-4 -4 -4 -10z"/>
<path d="M2515 3711 c-3 -5 -2 -12 3 -15 5 -3 9 1 9 9 0 17 -3 19 -12 6z"/>
<path d="M3726 3682 c-3 -5 1 -9 9 -9 8 0 12 4 9 9 -3 4 -7 8 -9 8 -2 0 -6 -4
-9 -8z"/>
<path d="M4090 3680 c0 -5 5 -10 11 -10 5 0 7 5 4 10 -3 6 -8 10 -11 10 -2 0
-4 -4 -4 -10z"/>
<path d="M2490 3640 c0 -5 5 -10 11 -10 5 0 7 5 4 10 -3 6 -8 10 -11 10 -2 0
-4 -4 -4 -10z"/>
<path d="M2530 3640 c0 -5 5 -10 11 -10 5 0 7 5 4 10 -3 6 -8 10 -11 10 -2 0
-4 -4 -4 -10z"/>
<path d="M2490 3599 c0 -5 5 -7 10 -4 6 3 10 8 10 11 0 2 -4 4 -10 4 -5 0 -10
-5 -10 -11z"/>
<path d="M2379 3588 c-5 -18 -6 -38 -1 -34 7 8 12 36 6 36 -2 0 -4 -1 -5 -2z"/>
<path d="M4196 3462 c-3 -5 1 -9 9 -9 8 0 12 4 9 9 -3 4 -7 8 -9 8 -2 0 -6 -4
-9 -8z"/>
<path d="M1532 3376 l3 -81 45 0 c25 0 48 -4 52 -10 5 -6 8 -7 8 0 0 6 26 10
59 10 33 0 57 -4 54 -9 -4 -5 0 -6 7 -1 20 12 399 12 392 0 -4 -6 -1 -6 9 0 8
7 86 10 199 9 102 -1 192 0 201 2 13 4 16 19 15 82 l-1 77 -523 1 -523 1 3
-81z"/>
<path d="M2600 3340 c-9 -6 -10 -10 -3 -10 6 0 15 5 18 10 8 12 4 12 -15 0z"/>
<path d="M1813 3265 c0 -8 4 -12 9 -9 5 3 6 10 3 15 -9 13 -12 11 -12 -6z"/>
<path d="M1930 3276 c0 -2 8 -10 18 -17 15 -13 16 -12 3 4 -13 16 -21 21 -21
13z"/>
<path d="M2490 3276 c0 -2 8 -10 18 -17 15 -13 16 -12 3 4 -13 16 -21 21 -21
13z"/>
<path d="M1853 3251 c0 -11 5 -18 9 -15 4 3 5 11 1 19 -7 21 -12 19 -10 -4z"/>
<path d="M2024 3262 c4 -3 14 -7 22 -8 9 -1 13 0 10 4 -4 3 -14 7 -22 8 -9 1
-13 0 -10 -4z"/>
<path d="M2400 3260 c-9 -6 -10 -10 -3 -10 6 0 15 5 18 10 8 12 4 12 -15 0z"/>
<path d="M1735 3240 c-3 -5 -1 -10 4 -10 6 0 11 5 11 10 0 6 -2 10 -4 10 -3 0
-8 -4 -11 -10z"/>
<path d="M2135 3241 c-3 -5 -2 -12 3 -15 5 -3 9 1 9 9 0 17 -3 19 -12 6z"/>
<path d="M2170 3240 c0 -5 5 -10 11 -10 5 0 7 5 4 10 -3 6 -8 10 -11 10 -2 0
-4 -4 -4 -10z"/>
<path d="M2596 3238 c3 -4 11 -5 19 -1 21 7 19 12 -4 10 -11 0 -18 -5 -15 -9z"/>
<path d="M2010 3000 l0 -80 33 -1 c17 -1 38 -1 46 0 15 3 12 -4 -31 -63 -102
-141 -74 -422 53 -546 42 -41 103 -74 132 -72 9 0 15 -3 13 -7 -6 -9 22 -6 99
11 67 15 134 64 176 129 29 43 57 134 61 196 1 18 6 33 10 33 5 0 4 9 -2 20
-8 15 -8 20 2 20 8 0 9 3 3 8 -12 8 -12 11 -18 79 -2 29 -12 64 -22 80 -11 15
-18 36 -18 46 1 9 -2 15 -6 13 -4 -3 -18 8 -30 24 -22 30 -17 41 8 18 11 -11
12 -10 6 0 -4 8 -2 13 6 11 43 -5 45 -2 45 81 l-1 80 -282 0 -283 0 0 -80z
m359 -89 c11 -7 21 -16 21 -22 0 -6 4 -8 9 -5 13 8 48 -34 72 -89 18 -39 23
-69 23 -135 1 -75 -2 -92 -29 -145 -49 -98 -134 -140 -220 -110 -102 35 -157
139 -150 284 3 74 34 148 78 189 50 47 141 62 196 33z"/>
<path d="M2269 2863 c-13 -16 -12 -17 4 -4 9 7 17 15 17 17 0 8 -8 3 -21 -13z"/>
<path d="M2293 2845 c0 -8 4 -12 9 -9 5 3 6 10 3 15 -9 13 -12 11 -12 -6z"/>
<path d="M2160 2760 c-12 -7 -10 -9 7 -7 12 0 19 5 17 9 -6 10 -6 10 -24 -2z"/>
<path d="M2216 2762 c-3 -5 1 -9 9 -9 8 0 12 4 9 9 -3 4 -7 8 -9 8 -2 0 -6 -4
-9 -8z"/>
<path d="M2126 2702 c-3 -5 1 -9 9 -9 8 0 12 4 9 9 -3 4 -7 8 -9 8 -2 0 -6 -4
-9 -8z"/>
<path d="M2135 2641 c-3 -5 -2 -12 3 -15 5 -3 9 1 9 9 0 17 -3 19 -12 6z"/>
<path d="M2175 2500 c-3 -5 -1 -10 4 -10 6 0 11 5 11 10 0 6 -2 10 -4 10 -3 0
-8 -4 -11 -10z"/>
<path d="M2615 2920 c-3 -5 -1 -10 4 -10 6 0 11 5 11 10 0 6 -2 10 -4 10 -3 0
-8 -4 -11 -10z"/>
<path d="M2595 2429 c-4 -6 -5 -12 -2 -15 2 -3 7 2 10 11 7 17 1 20 -8 4z"/>
<path d="M2575 2301 c-3 -5 -2 -12 3 -15 5 -3 9 1 9 9 0 17 -3 19 -12 6z"/>
<path d="M2394 2229 c-3 -6 -2 -15 3 -20 5 -5 9 -1 9 11 0 23 -2 24 -12 9z"/>
<path d="M2255 2201 c-3 -5 -2 -12 3 -15 5 -3 9 1 9 9 0 17 -3 19 -12 6z"/>
<path d="M2550 2175 c-12 -13 -27 -22 -33 -18 -6 4 -7 1 -2 -7 4 -7 4 -15 -1
-19 -5 -3 -52 -58 -105 -121 -127 -152 -140 -165 -150 -163 -4 2 -6 -4 -3 -12
4 -8 2 -15 -3 -15 -5 0 -61 77 -124 171 l-114 172 -3 -101 -3 -101 102 -153
c57 -84 103 -155 103 -158 1 -3 -152 -5 -339 -5 l-340 0 -3 -82 -3 -81 81 2
c44 0 80 -2 80 -6 0 -4 6 -5 14 -2 21 8 106 10 106 2 0 -4 13 -3 30 2 18 5 32
5 35 -1 4 -5 14 -5 27 2 16 9 19 8 12 -3 -6 -11 -5 -11 8 0 12 10 17 10 27 -1
6 -8 7 -18 3 -22 -4 -5 -2 -5 5 -1 7 4 9 14 6 24 -6 14 -4 15 8 5 9 -7 20 -9
29 -3 17 11 43 -7 33 -23 -3 -6 -1 -7 5 -3 6 4 8 14 5 24 -6 14 -4 15 9 4 11
-9 18 -10 23 -2 10 16 25 2 18 -18 -5 -16 -5 -16 8 0 8 9 28 18 44 20 25 2 29
0 27 -17 -3 -19 -3 -19 10 -3 10 14 32 18 101 20 48 2 87 0 87 -4 0 -4 13 -3
30 2 18 5 32 5 36 -1 3 -5 10 -6 17 -2 6 3 36 6 67 5 l57 -1 -2 77 c-1 42 -3
79 -3 82 -1 3 -46 5 -99 5 -54 0 -104 1 -111 3 -15 5 -47 62 -34 62 5 0 15 11
22 25 8 15 20 23 27 20 8 -2 12 -1 9 4 -8 13 95 132 107 124 6 -3 7 -1 4 4 -4
6 12 32 36 59 l42 48 1 103 c1 57 0 103 -1 103 -1 0 -12 -11 -25 -25z"/>
<path d="M2316 2178 c3 -5 10 -6 15 -3 13 9 11 12 -6 12 -8 0 -12 -4 -9 -9z"/>
<path d="M4355 2180 c-3 -5 -1 -10 4 -10 6 0 11 5 11 10 0 6 -2 10 -4 10 -3 0
-8 -4 -11 -10z"/>
<path d="M2614 1962 c4 -3 14 -7 22 -8 9 -1 13 0 10 4 -4 3 -14 7 -22 8 -9 1
-13 0 -10 -4z"/>
<path d="M2610 1919 c0 -5 5 -7 10 -4 6 3 10 8 10 11 0 2 -4 4 -10 4 -5 0 -10
-5 -10 -11z"/>
<path d="M2610 1880 c0 -5 5 -10 11 -10 5 0 7 5 4 10 -3 6 -8 10 -11 10 -2 0
-4 -4 -4 -10z"/>
<path d="M4706 1862 c-3 -5 1 -9 9 -9 8 0 12 4 9 9 -3 4 -7 8 -9 8 -2 0 -6 -4
-9 -8z"/>
<path d="M2554 1842 c4 -3 14 -7 22 -8 9 -1 13 0 10 4 -4 3 -14 7 -22 8 -9 1
-13 0 -10 -4z"/>
<path d="M2455 1760 c3 -5 8 -10 11 -10 2 0 4 5 4 10 0 6 -5 10 -11 10 -5 0
-7 -4 -4 -10z"/>
<path d="M2495 1760 c-3 -5 -1 -10 4 -10 6 0 11 5 11 10 0 6 -2 10 -4 10 -3 0
-8 -4 -11 -10z"/>
<path d="M4716 1713 c-6 -14 -5 -15 5 -6 7 7 10 15 7 18 -3 3 -9 -2 -12 -12z"/>
<path d="M2054 1418 c-4 -7 -4 -10 1 -6 4 4 15 2 24 -5 14 -11 14 -10 2 6 -16
20 -18 21 -27 5z"/>
<path d="M2279 1413 c-13 -16 -12 -17 4 -4 9 7 17 15 17 17 0 8 -8 3 -21 -13z"/>
<path d="M1790 1400 c0 -5 5 -10 11 -10 5 0 7 5 4 10 -3 6 -8 10 -11 10 -2 0
-4 -4 -4 -10z"/>
<path d="M970 1309 c0 -17 9 -19 83 -20 99 0 4247 0 4265 0 6 1 12 9 12 19 0
18 -73 19 -2180 19 -2119 0 -2180 0 -2180 -18z"/>
<path d="M2136 1178 c3 -5 10 -6 15 -3 13 9 11 12 -6 12 -8 0 -12 -4 -9 -9z"/>
<path d="M3936 1178 c3 -5 10 -6 15 -3 13 9 11 12 -6 12 -8 0 -12 -4 -9 -9z"/>
<path d="M5216 1178 c3 -5 10 -6 15 -3 13 9 11 12 -6 12 -8 0 -12 -4 -9 -9z"/>
<path d="M4365 1120 c-3 -5 -17 -10 -30 -10 -42 0 -93 -31 -105 -63 -15 -43 4
-66 99 -121 64 -37 81 -51 81 -69 0 -13 -5 -28 -12 -35 -14 -14 -87 -16 -122
-2 -14 5 -26 6 -27 2 0 -4 -2 -15 -4 -25 -4 -22 29 -31 110 -32 65 0 128 23
141 52 22 51 5 86 -58 119 -16 8 -28 19 -28 25 0 6 -4 8 -10 4 -11 -7 -77 34
-85 53 -2 7 5 22 16 33 17 17 31 20 79 17 32 -1 59 0 59 5 3 35 0 37 -50 37
-31 0 -48 4 -44 10 3 6 4 10 1 10 -3 0 -8 -4 -11 -10z"/>
<path d="M2845 1105 c-52 -13 -68 -24 -90 -59 -26 -40 -26 -170 1 -214 18 -32
90 -76 106 -66 4 3 8 -1 8 -8 0 -9 3 -9 10 2 5 8 10 11 10 5 0 -5 11 -10 24
-10 13 0 22 3 19 8 -2 4 6 6 18 4 46 -7 117 34 128 74 7 27 17 160 11 165 -3
3 -5 9 -5 12 0 20 -50 72 -78 81 -48 16 -117 18 -162 6z m120 -49 c11 -8 16
-19 12 -30 -4 -10 -3 -15 3 -11 13 8 16 -85 5 -153 -6 -39 -24 -52 -71 -52
-35 0 -47 5 -60 25 -8 13 -13 29 -10 34 4 5 2 12 -3 16 -6 3 -9 38 -7 77 3 60
7 74 26 90 26 21 79 24 105 4z"/>
<path d="M1411 1093 c-5 -10 -27 -61 -49 -113 -22 -52 -52 -121 -66 -152 l-26
-58 46 0 c41 0 46 3 55 30 11 31 15 33 97 32 45 -1 62 -7 62 -23 0 -6 -6 -7
-12 -3 -7 4 -2 -4 11 -18 19 -19 32 -24 59 -21 19 2 42 -2 51 -9 14 -12 14
-11 3 4 -8 9 -11 21 -8 27 3 5 -1 12 -9 15 -8 3 -14 9 -13 13 1 9 -15 51 -33
85 -9 16 -8 19 2 12 7 -4 4 6 -7 22 -20 28 -56 102 -75 151 -11 29 -73 33 -88
6z m82 -203 c1 -11 -10 -16 -47 -18 -43 -3 -48 -1 -41 15 4 10 16 46 28 81
l21 63 18 -63 c11 -35 20 -70 21 -78z"/>
<path d="M1689 978 c-1 -167 1 -202 12 -209 11 -6 68 -3 76 5 3 3 6 39 6 80 0
44 4 73 9 70 5 -3 7 -13 4 -21 -3 -8 -2 -11 3 -8 6 3 24 -16 42 -42 18 -27 39
-54 46 -61 7 -8 10 -18 7 -24 -4 -7 -2 -8 4 -4 7 4 12 2 12 -5 0 -10 3 -10 12
-1 15 15 48 16 48 0 0 -6 6 -4 13 7 12 15 12 21 -2 35 -18 19 -32 37 -73 92
l-27 36 32 13 c18 8 35 13 39 11 5 -1 7 1 7 6 -3 18 2 33 10 28 10 -7 3 42
-11 71 -17 35 -77 53 -178 53 l-90 0 -1 -132z m171 72 c11 -11 20 -26 19 -32
-1 -16 -17 -56 -18 -44 -1 5 -7 4 -13 -1 -7 -5 -26 -10 -41 -12 -28 -3 -28 -2
-26 53 2 54 3 56 31 56 15 0 37 -9 48 -20z"/>
<path d="M2029 1108 c-10 -35 -7 -38 47 -38 l54 0 0 -149 c0 -148 0 -150 23
-153 12 -2 33 -2 47 0 l25 4 -2 149 c-2 82 0 148 5 148 4 -1 28 -1 54 0 40 1
47 4 45 21 -1 19 -8 20 -149 20 -81 0 -148 -1 -149 -2z"/>
<path d="M2379 1108 c-1 -2 -2 -78 -3 -170 l-2 -168 42 0 c23 0 48 -2 56 -3 7
-2 10 -2 6 0 -5 3 -8 41 -8 86 l0 82 25 -38 c14 -20 23 -42 19 -49 -4 -6 -3
-8 3 -5 6 4 26 -13 44 -38 19 -24 39 -43 45 -41 6 3 17 -1 24 -7 10 -9 11 -9
6 1 -4 6 -3 12 1 12 5 0 15 -6 22 -12 11 -11 12 -10 6 1 -6 11 -4 13 9 8 19
-8 8 11 -70 114 l-43 56 27 -1 c17 -1 26 -6 24 -14 -1 -8 2 -11 8 -7 8 5 7 11
-1 21 -11 13 -2 19 23 15 4 0 5 6 2 14 -4 8 -2 15 4 15 16 0 4 72 -15 92 -10
10 -32 22 -48 27 -28 8 -204 16 -206 9z m163 -51 c20 -16 24 -35 14 -65 -5
-15 -13 -21 -22 -18 -8 3 -12 2 -9 -3 3 -6 -8 -9 -24 -9 -30 1 -30 2 -30 55 1
51 2 53 28 53 14 0 33 -6 43 -13z"/>
<path d="M3179 963 c-1 -142 0 -185 5 -191 3 -3 64 -5 84 -3 8 1 11 10 8 26
-3 15 0 25 7 25 8 0 8 3 2 8 -13 8 -13 22 -1 41 6 10 5 12 -2 7 -8 -5 -11 0
-9 16 3 19 11 23 41 24 99 4 156 41 156 101 -1 64 -55 90 -192 92 l-98 2 -1
-148z m169 91 c14 -9 22 -26 22 -43 0 -31 -15 -42 -66 -48 l-31 -4 0 55 c0 54
1 56 26 56 15 0 37 -7 49 -16z"/>
<path d="M3539 1013 c-1 -138 2 -237 7 -242 2 -2 37 -4 79 -4 53 0 73 -3 68
-11 -4 -6 1 -5 10 3 14 11 20 11 34 0 11 -10 14 -10 9 -1 -4 7 -1 12 8 12 9 0
16 -6 17 -12 0 -7 4 -4 8 7 15 38 3 45 -76 45 -70 0 -74 1 -62 17 10 11 10 14
2 9 -9 -5 -13 1 -13 19 0 15 4 24 10 20 6 -3 10 -1 10 4 0 6 -4 11 -9 11 -5 0
-9 16 -9 35 0 20 5 35 12 35 8 0 8 2 0 8 -7 4 -11 34 -10 75 l1 67 -47 0 -48
0 -1 -97z"/>
<path d="M3910 963 c-34 -82 -69 -158 -77 -170 -12 -21 -12 -23 9 -24 13 0 35
-2 51 -3 15 -1 27 3 27 10 0 6 6 22 13 35 11 21 19 24 75 24 61 0 63 -1 74
-32 7 -18 14 -33 18 -34 3 0 26 -1 52 -2 l47 -2 -15 24 c-9 12 -14 31 -11 42
3 10 1 17 -5 16 -5 -1 -19 21 -30 48 -11 28 -32 77 -47 110 -16 33 -31 70 -35
83 -6 18 -15 22 -45 22 l-37 0 -64 -147z m113 10 c2 -16 6 -34 10 -40 3 -5 11
-21 16 -35 9 -25 9 -25 -45 -27 -49 -1 -53 1 -44 17 13 24 40 109 40 130 1 16
1 16 10 0 6 -9 11 -29 13 -45z"/>
<path d="M4540 1090 c0 -17 7 -20 49 -20 28 0 53 -5 57 -12 5 -7 3 -8 -6 -3
-9 6 -11 4 -5 -6 13 -20 13 -109 1 -109 -7 0 -8 -3 -1 -8 12 -8 15 -143 3
-136 -4 3 -5 -2 -2 -10 5 -12 21 -16 61 -16 41 0 52 3 46 13 -11 18 -11 80 0
95 6 7 6 12 0 12 -11 0 -10 110 1 128 4 6 3 12 -2 12 -6 0 -8 9 -5 20 4 17 14
20 54 20 42 0 49 3 49 20 0 19 -7 20 -150 20 -143 0 -150 -1 -150 -20z"/>
<path d="M4886 1094 c-9 -8 -16 -19 -16 -23 0 -14 24 -30 52 -35 25 -4 68 17
68 34 0 18 -33 40 -60 40 -16 0 -36 -7 -44 -16z"/>
<path d="M4888 890 c2 -66 6 -120 10 -121 4 -1 24 -2 44 -3 l38 -1 -3 53 c-2
28 0 52 4 52 5 0 4 11 -1 25 -6 15 -6 34 0 49 6 17 5 26 -3 29 -9 3 -9 8 2 20
12 16 9 17 -40 17 l-54 0 3 -120z"/>
<path d="M2270 980 c0 -5 5 -10 11 -10 5 0 7 5 4 10 -3 6 -8 10 -11 10 -2 0
-4 -4 -4 -10z"/>
<path d="M4755 959 c-3 -4 2 -6 10 -5 21 3 28 13 10 13 -9 0 -18 -4 -20 -8z"/>
<path d="M2274 922 c4 -3 14 -7 22 -8 9 -1 13 0 10 4 -4 3 -14 7 -22 8 -9 1
-13 0 -10 -4z"/>
<path d="M2659 928 c-5 -18 -6 -38 -1 -34 7 8 12 36 6 36 -2 0 -4 -1 -5 -2z"/>
<path d="M3459 928 c-5 -18 -6 -38 -1 -34 7 8 12 36 6 36 -2 0 -4 -1 -5 -2z"/>
<path d="M3696 922 c-3 -5 1 -9 9 -9 8 0 12 4 9 9 -3 4 -7 8 -9 8 -2 0 -6 -4
-9 -8z"/>
<path d="M4755 919 c-3 -4 2 -6 10 -5 21 3 28 13 10 13 -9 0 -18 -4 -20 -8z"/>
<path d="M4995 920 c-3 -5 -1 -10 4 -10 6 0 11 5 11 10 0 6 -2 10 -4 10 -3 0
-8 -4 -11 -10z"/>
<path d="M1949 903 c-13 -16 -12 -17 4 -4 16 13 21 21 13 21 -2 0 -10 -8 -17
-17z"/>
<path d="M3139 908 c-5 -18 -6 -38 -1 -34 7 8 12 36 6 36 -2 0 -4 -1 -5 -2z"/>
<path d="M3374 882 c4 -3 14 -7 22 -8 9 -1 13 0 10 4 -4 3 -14 7 -22 8 -9 1
-13 0 -10 -4z"/>
<path d="M5035 871 c-3 -5 -2 -12 3 -15 5 -3 9 1 9 9 0 17 -3 19 -12 6z"/>
<path d="M4375 861 c-3 -5 -2 -12 3 -15 5 -3 9 1 9 9 0 17 -3 19 -12 6z"/>
<path d="M1975 841 c-3 -5 -2 -12 3 -15 5 -3 9 1 9 9 0 17 -3 19 -12 6z"/>
<path d="M2275 841 c-3 -5 -2 -12 3 -15 5 -3 9 1 9 9 0 17 -3 19 -12 6z"/>
<path d="M3335 840 c3 -5 8 -10 11 -10 2 0 4 5 4 10 0 6 -5 10 -11 10 -5 0 -7
-4 -4 -10z"/>
<path d="M1635 820 c-3 -5 -1 -10 4 -10 6 0 11 5 11 10 0 6 -2 10 -4 10 -3 0
-8 -4 -11 -10z"/>
<path d="M2230 826 c0 -2 7 -7 16 -10 8 -3 12 -2 9 4 -6 10 -25 14 -25 6z"/>
<path d="M5025 820 c-3 -6 1 -7 9 -4 18 7 21 14 7 14 -6 0 -13 -4 -16 -10z"/>
<path d="M1806 802 c-3 -5 1 -9 9 -9 8 0 12 4 9 9 -3 4 -7 8 -9 8 -2 0 -6 -4
-9 -8z"/>
<path d="M3126 798 c3 -5 10 -6 15 -3 13 9 11 12 -6 12 -8 0 -12 -4 -9 -9z"/>
<path d="M4055 801 c-3 -5 -2 -12 3 -15 5 -3 9 1 9 9 0 17 -3 19 -12 6z"/>
<path d="M2550 780 c0 -5 5 -10 11 -10 5 0 7 5 4 10 -3 6 -8 10 -11 10 -2 0
-4 -4 -4 -10z"/>
<path d="M3313 775 c0 -8 4 -12 9 -9 5 3 6 10 3 15 -9 13 -12 11 -12 -6z"/>
<path d="M2716 767 c3 -10 9 -15 12 -12 3 3 0 11 -7 18 -10 9 -11 8 -5 -6z"/>
<path d="M1846 758 c3 -5 10 -6 15 -3 13 9 11 12 -6 12 -8 0 -12 -4 -9 -9z"/>
<path d="M2246 758 c3 -5 10 -6 15 -3 13 9 11 12 -6 12 -8 0 -12 -4 -9 -9z"/>
<path d="M3086 758 c3 -5 10 -6 15 -3 13 9 11 12 -6 12 -8 0 -12 -4 -9 -9z"/>
<path d="M3330 740 c0 -5 5 -10 11 -10 5 0 7 5 4 10 -3 6 -8 10 -11 10 -2 0
-4 -4 -4 -10z"/>
<path d="M4495 740 c3 -5 8 -10 11 -10 2 0 4 5 4 10 0 6 -5 10 -11 10 -5 0 -7
-4 -4 -10z"/>
<path d="M4770 739 c0 -5 5 -7 10 -4 6 3 10 8 10 11 0 2 -4 4 -10 4 -5 0 -10
-5 -10 -11z"/>
<path d="M4830 741 c0 -6 4 -13 10 -16 6 -3 7 1 4 9 -7 18 -14 21 -14 7z"/>
<path d="M5013 715 c0 -8 4 -12 9 -9 5 3 6 10 3 15 -9 13 -12 11 -12 -6z"/>
<path d="M3910 656 c7 -7 13 -7 20 0 6 6 3 10 -10 10 -13 0 -16 -4 -10 -10z"/>
<path d="M3882 578 c8 -23 52 -38 113 -38 61 0 105 15 113 38 5 15 -54 17 -63
2 -3 -5 -26 -10 -50 -10 -24 0 -47 5 -50 10 -9 15 -68 13 -63 -2z"/>
<path d="M1955 496 c-2 -6 -3 -83 -2 -171 l2 -160 35 0 c19 0 40 -3 45 -7 6
-4 17 -3 25 3 20 12 33 11 24 -2 -4 -7 1 -7 16 1 12 6 24 9 27 7 8 -9 97 25
116 45 22 23 44 85 42 118 -9 132 -57 170 -228 175 -68 2 -100 -1 -102 -9z
m178 -45 c28 -11 52 -54 43 -77 -3 -8 -2 -16 3 -18 4 -3 7 -18 5 -33 -1 -15
-2 -36 -3 -46 -2 -30 -48 -65 -91 -69 -22 -2 -40 -1 -41 2 -5 27 -3 103 3 107
5 2 5 10 1 16 -11 18 -9 121 2 129 11 8 38 5 78 -11z"/>
<path d="M2114 362 c4 -3 14 -7 22 -8 9 -1 13 0 10 4 -4 3 -14 7 -22 8 -9 1
-13 0 -10 -4z"/>
<path d="M2097 315 c-4 -8 -3 -16 1 -19 4 -3 9 4 9 15 2 23 -3 25 -10 4z"/>
<path d="M2375 486 c-2 -11 -3 -88 -2 -171 l2 -150 98 0 c53 0 97 -2 97 -6 0
-3 7 -6 15 -6 8 0 12 4 9 9 -4 5 2 8 12 6 13 -2 18 2 15 12 -2 8 -4 20 -4 27
0 7 -5 9 -11 6 -5 -4 -38 -7 -73 -8 -69 -1 -64 -7 -65 73 l-1 37 56 1 c69 2
86 8 83 30 -2 15 -14 17 -72 17 l-69 -1 2 47 c1 25 2 49 2 53 1 11 54 6 70 -6
11 -8 13 -8 7 1 -5 9 1 12 23 9 35 -4 55 6 49 25 -4 11 -32 14 -121 15 -112 1
-117 0 -122 -20z"/>
<path d="M2711 501 c-7 -5 -10 -59 -8 -171 l2 -165 25 -1 c35 -3 83 8 73 15
-12 8 -11 84 2 93 7 5 7 8 0 8 -6 0 -11 9 -11 20 0 11 3 20 6 20 4 0 34 -41
65 -89 6 -8 15 -21 22 -28 6 -7 13 -18 15 -25 5 -13 108 -21 108 -8 0 4 -6 13
-14 20 -8 6 -12 19 -9 27 4 10 2 14 -4 10 -6 -4 -29 18 -51 48 l-41 55 27 7
c84 21 86 127 3 154 -40 14 -192 21 -210 10z m164 -51 c18 -15 21 -65 3 -54
-7 5 -8 3 -3 -6 10 -16 -12 -30 -51 -30 l-31 0 0 56 1 55 33 -4 c18 -3 40 -10
48 -17z"/>
<path d="M3086 501 c-2 -3 -3 -84 -3 -178 0 -123 3 -170 11 -165 6 5 26 8 44
6 31 -2 37 4 33 35 -2 8 2 10 11 5 10 -6 10 -5 2 7 -6 8 -12 41 -13 74 -1 33
-4 74 -7 90 -6 29 -5 29 10 10 8 -11 16 -24 16 -29 0 -4 14 -28 30 -53 17 -24
30 -51 30 -59 0 -8 4 -13 9 -10 5 3 16 -5 24 -18 12 -18 13 -26 4 -35 -9 -9
-8 -11 6 -6 9 4 17 3 17 -3 0 -5 7 -13 16 -16 9 -3 12 -2 9 4 -4 7 4 9 23 5
18 -3 36 1 48 11 10 8 14 13 8 10 -7 -3 -11 10 -12 35 -1 22 2 38 7 34 5 -3
13 -1 16 5 4 6 1 9 -7 8 -10 -2 -13 20 -15 97 -1 55 -2 109 -2 120 -1 18 -8
21 -46 21 l-45 1 -1 -56 c-1 -66 1 -105 7 -146 4 -25 0 -21 -29 26 -18 31 -53
82 -76 115 -39 54 -46 59 -82 60 -21 1 -41 -1 -43 -5z"/>
<path d="M3508 491 c-2 -9 -3 -51 -3 -93 1 -49 -2 -75 -8 -71 -6 4 -7 1 -1 -8
5 -8 10 -41 10 -74 1 -33 2 -65 3 -71 1 -8 37 -11 114 -10 86 1 117 -2 132
-13 15 -12 17 -12 8 -1 -7 8 -13 24 -13 36 0 19 -5 22 -32 20 -18 -1 -39 3
-47 9 -11 7 -13 7 -8 -1 4 -7 -6 -10 -28 -10 l-35 1 0 56 0 56 66 1 c37 1 69
3 71 6 3 2 2 13 -1 23 -5 16 -16 18 -71 17 l-65 -2 1 53 2 53 71 -2 c64 -1 71
1 74 19 3 20 -3 20 -117 21 -101 1 -120 -2 -123 -15z"/>
<path d="M3896 493 c-27 -14 -66 -48 -66 -58 0 -3 0 -12 0 -21 0 -9 -5 -12
-12 -8 -7 5 -8 3 -3 -6 5 -7 9 -43 9 -80 1 -96 39 -145 122 -155 21 -3 39 -7
42 -9 2 -2 17 0 33 4 18 5 31 5 35 -2 4 -5 9 -6 13 -1 3 4 18 14 33 20 35 16
59 63 61 121 l2 46 -78 1 c-63 1 -80 -1 -87 -15 -10 -19 24 -48 35 -29 5 6 12
6 23 -3 13 -11 14 -11 7 1 -5 10 -4 12 3 7 18 -11 14 -51 -7 -77 -23 -29 -94
-31 -120 -4 -9 10 -10 15 -2 10 9 -5 8 0 -3 18 -17 24 -22 106 -12 157 13 59
88 79 132 35 23 -23 29 -25 65 -15 21 6 39 12 39 14 0 13 -42 45 -72 55 -47
16 -158 12 -192 -6z"/>
<path d="M4268 498 c-31 -11 -36 -29 -12 -52 36 -36 120 -2 91 37 -15 22 -44
27 -79 15z"/>
<path d="M4095 400 c3 -5 8 -10 11 -10 2 0 4 5 4 10 0 6 -5 10 -11 10 -5 0 -7
-4 -4 -10z"/>
<path d="M4260 381 c-3 -172 -3 -208 3 -217 4 -7 22 -8 44 -5 l38 6 1 110 c0
61 -1 115 -4 121 -2 7 -21 11 -43 11 -35 -1 -39 -4 -39 -26z"/>
<path d="M3035 351 c-3 -5 -2 -12 3 -15 5 -3 9 1 9 9 0 17 -3 19 -12 6z"/>
<path d="M2976 318 c3 -5 10 -6 15 -3 13 9 11 12 -6 12 -8 0 -12 -4 -9 -9z"/>
<path d="M3015 321 c-3 -5 -2 -12 3 -15 5 -3 9 1 9 9 0 17 -3 19 -12 6z"/>
<path d="M2315 301 c-3 -5 -2 -12 3 -15 5 -3 9 1 9 9 0 17 -3 19 -12 6z"/>
<path d="M2495 300 c-3 -5 -1 -10 4 -10 6 0 11 5 11 10 0 6 -2 10 -4 10 -3 0
-8 -4 -11 -10z"/>
<path d="M3694 296 c1 -8 5 -18 8 -22 4 -3 5 1 4 10 -1 8 -5 18 -8 22 -4 3 -5
-1 -4 -10z"/>
<path d="M4226 302 c-3 -5 1 -9 9 -9 8 0 12 4 9 9 -3 4 -7 8 -9 8 -2 0 -6 -4
-9 -8z"/>
<path d="M3956 273 c-6 -14 -5 -15 5 -6 7 7 10 15 7 18 -3 3 -9 -2 -12 -12z"/>
<path d="M2630 259 c0 -5 5 -7 10 -4 6 3 10 8 10 11 0 2 -4 4 -10 4 -5 0 -10
-5 -10 -11z"/>
<path d="M2976 262 c-3 -5 1 -9 9 -9 8 0 12 4 9 9 -3 4 -7 8 -9 8 -2 0 -6 -4
-9 -8z"/>
<path d="M4187 259 c7 -7 15 -10 18 -7 3 3 -2 9 -12 12 -14 6 -15 5 -6 -5z"/>
<path d="M3655 240 c3 -5 8 -10 11 -10 2 0 4 5 4 10 0 6 -5 10 -11 10 -5 0 -7
-4 -4 -10z"/>
<path d="M4395 240 c3 -5 8 -10 11 -10 2 0 4 5 4 10 0 6 -5 10 -11 10 -5 0 -7
-4 -4 -10z"/>
<path d="M3445 220 c-3 -6 1 -7 9 -4 18 7 21 14 7 14 -6 0 -13 -4 -16 -10z"/>
<path d="M4416 198 c3 -5 10 -6 15 -3 13 9 11 12 -6 12 -8 0 -12 -4 -9 -9z"/>
<path d="M3236 187 c3 -10 9 -15 12 -12 3 3 0 11 -7 18 -10 9 -11 8 -5 -6z"/>
<path d="M3355 140 c-3 -5 -1 -10 4 -10 6 0 11 5 11 10 0 6 -2 10 -4 10 -3 0
-8 -4 -11 -10z"/>
<path d="M3694 122 c4 -3 14 -7 22 -8 9 -1 13 0 10 4 -4 3 -14 7 -22 8 -9 1
-13 0 -10 -4z"/>
<path d="M4235 109 c-4 -6 -5 -12 -2 -15 2 -3 7 2 10 11 7 17 1 20 -8 4z"/>
</g>
</svg>
